solid 
 facet normal  0.000000e+00 -1.000000e+00  0.000000e+00
   outer loop
     vertex  1.300000e+01  0.000000e+00  2.700000e+01
     vertex  3.500000e+01  0.000000e+00  2.000000e+02
     vertex -3.500000e+01  0.000000e+00  2.000000e+02
   endloop
 endfacet
 facet normal  0.000000e+00 -1.000000e+00  0.000000e+00
   outer loop
     vertex  1.300000e+01  0.000000e+00  2.700000e+01
     vertex -3.500000e+01  0.000000e+00  2.000000e+02
     vertex -1.300000e+01  0.000000e+00  2.700000e+01
   endloop
 endfacet
 facet normal  0.000000e+00 -1.000000e+00  0.000000e+00
   outer loop
     vertex -3.500000e+01  0.000000e+00 -2.000000e+02
     vertex  1.300000e+01  0.000000e+00 -2.700000e+01
     vertex -1.300000e+01  0.000000e+00 -2.700000e+01
   endloop
 endfacet
 facet normal  0.000000e+00 -1.000000e+00  0.000000e+00
   outer loop
     vertex  3.500000e+01  0.000000e+00 -2.000000e+02
     vertex  1.300000e+01  0.000000e+00 -2.700000e+01
     vertex -3.500000e+01  0.000000e+00 -2.000000e+02
   endloop
 endfacet
 facet normal  0.000000e+00 -1.000000e+00  0.000000e+00
   outer loop
     vertex -3.500000e+01  0.000000e+00 -2.000000e+02
     vertex -1.300000e+01  0.000000e+00  2.700000e+01
     vertex -3.500000e+01  0.000000e+00  2.000000e+02
   endloop
 endfacet
 facet normal  0.000000e+00 -1.000000e+00  0.000000e+00
   outer loop
     vertex -3.500000e+01  0.000000e+00 -2.000000e+02
     vertex -1.300000e+01  0.000000e+00 -2.700000e+01
     vertex -1.300000e+01  0.000000e+00  2.700000e+01
   endloop
 endfacet
 facet normal  0.000000e+00 -1.000000e+00 -0.000000e+00
   outer loop
     vertex  3.500000e+01  0.000000e+00  2.000000e+02
     vertex  1.300000e+01  0.000000e+00 -2.700000e+01
     vertex  3.500000e+01  0.000000e+00 -2.000000e+02
   endloop
 endfacet
 facet normal  0.000000e+00 -1.000000e+00  0.000000e+00
   outer loop
     vertex  3.500000e+01  0.000000e+00  2.000000e+02
     vertex  1.300000e+01  0.000000e+00  2.700000e+01
     vertex  1.300000e+01  0.000000e+00 -2.700000e+01
   endloop
 endfacet
 facet normal  1.000000e+00  0.000000e+00  0.000000e+00
   outer loop
     vertex  3.500000e+01  1.000000e+02 -2.000000e+02
     vertex  3.500000e+01  0.000000e+00  2.000000e+02
     vertex  3.500000e+01  0.000000e+00 -2.000000e+02
   endloop
 endfacet
 facet normal  1.000000e+00  0.000000e+00 -0.000000e+00
   outer loop
     vertex  3.500000e+01  1.000000e+02 -2.000000e+02
     vertex  3.500000e+01  1.000000e+02  2.000000e+02
     vertex  3.500000e+01  0.000000e+00  2.000000e+02
   endloop
 endfacet
 facet normal  0.000000e+00  1.000000e+00  0.000000e+00
   outer loop
     vertex -3.500000e+01  1.000000e+02 -2.000000e+02
     vertex  3.500000e+01  1.000000e+02  2.000000e+02
     vertex  3.500000e+01  1.000000e+02 -2.000000e+02
   endloop
 endfacet
 facet normal  0.000000e+00  1.000000e+00  0.000000e+00
   outer loop
     vertex -3.500000e+01  1.000000e+02 -2.000000e+02
     vertex -3.500000e+01  1.000000e+02  2.000000e+02
     vertex  3.500000e+01  1.000000e+02  2.000000e+02
   endloop
 endfacet
 facet normal -1.000000e+00  0.000000e+00  0.000000e+00
   outer loop
     vertex -3.500000e+01  0.000000e+00 -2.000000e+02
     vertex -3.500000e+01  1.000000e+02  2.000000e+02
     vertex -3.500000e+01  1.000000e+02 -2.000000e+02
   endloop
 endfacet
 facet normal -1.000000e+00  0.000000e+00  0.000000e+00
   outer loop
     vertex -3.500000e+01  0.000000e+00 -2.000000e+02
     vertex -3.500000e+01  0.000000e+00  2.000000e+02
     vertex -3.500000e+01  1.000000e+02  2.000000e+02
   endloop
 endfacet
endsolid
